Coordinates
version=1
nRows=8
nColumns=40
inDegrees=yes

Units are S.I. units (second, meters, Newtons, ...)
If the header above contains a line with 'inDegrees', this indicates whether rotational values are in degrees (yes) or radians (no).

endheader
time	pelvis_tilt	pelvis_list	pelvis_rotation	pelvis_tx	pelvis_ty	pelvis_tz	hip_flexion_r	hip_adduction_r	hip_rotation_r	knee_angle_r	knee_angle_r_beta	ankle_angle_r	subtalar_angle_r	mtp_angle_r	hip_flexion_l	hip_adduction_l	hip_rotation_l	knee_angle_l	knee_angle_l_beta	ankle_angle_l	subtalar_angle_l	mtp_angle_l	lumbar_extension	lumbar_bending	lumbar_rotation	arm_flex_r	arm_add_r	arm_rot_r	elbow_flex_r	pro_sup_r	wrist_flex_r	wrist_dev_r	arm_flex_l	arm_add_l	arm_rot_l	elbow_flex_l	pro_sup_l	wrist_flex_l	wrist_dev_l
      8.00000000	     29.28541905	      1.59252347	   -175.60680937	      0.26182251	      0.76409091	     -0.89234734	     62.18671049	    -37.27355509	    -22.43046206	     40.80294821	      0.71214579	     -2.79580946	      0.00000000	      0.00000000	     70.03634113	    -27.41262565	     -7.02665367	     46.50376122	      0.81164375	      1.08145120	      0.00000000	      0.00000000	    -79.15863120	     10.89177306	    -11.67117966	     89.12758059	     11.43712046	     54.95406091	      4.43659553	      8.17821097	      0.00000000	      0.00000000	     89.93144371	    -30.14532835	     41.89255116	     29.94026882	     70.66677858	      0.00000000	      0.00000000
      8.00500000	     29.42220443	      1.53426980	   -175.50524273	      0.26162031	      0.76380160	     -0.89239881	     62.34071306	    -37.47007709	    -22.52737533	     40.88335389	      0.71354913	     -2.73176979	      0.00000000	      0.00000000	     70.11726034	    -27.23970475	     -6.97408818	     46.44542659	      0.81062562	      1.15301344	      0.00000000	      0.00000000	    -79.10819683	     10.96879651	    -11.40651479	     89.33135903	     11.73751510	     46.35112591	      4.61720878	     14.09857520	      0.00000000	      0.00000000	     89.93179704	    -29.72941530	     42.43915333	     29.99564106	     65.49494365	      0.00000000	      0.00000000
      8.01000000	     29.46651122	      1.47130598	   -175.71767088	      0.26151396	      0.76365780	     -0.89288207	     62.53788208	    -37.30253747	    -22.30038400	     40.92259431	      0.71423401	     -2.74243557	      0.00000000	      0.00000000	     70.11965715	    -27.45858549	     -7.12620166	     46.53126747	      0.81212382	      1.14203404	      0.00000000	      0.00000000	    -79.21696092	     10.86698563	    -11.12700828	     89.27544972	     10.64331086	     57.48770522	      4.53329117	      8.11469834	      0.00000000	      0.00000000	     89.93171187	    -29.72566857	     41.67291873	     30.13314600	     70.91643510	      0.00000000	      0.00000000
      8.01500000	     29.54908680	      1.40098332	   -175.78384150	      0.26138982	      0.76347851	     -0.89313701	     62.70161376	    -37.29383590	    -22.19876525	     40.94096144	      0.71455458	     -2.75403488	      0.00000000	      0.00000000	     70.13817774	    -27.47377303	     -7.15937773	     46.52015622	      0.81192989	      1.11167102	      0.00000000	      0.00000000	    -79.24134218	     10.83684691	    -10.86801300	     89.34074941	     10.32801961	     57.93650099	      4.72057401	      7.75386517	      0.00000000	      0.00000000	     89.93191583	    -29.51647395	     41.59973632	     30.22286738	     71.08144392	      0.00000000	      0.00000000
      8.02000000	     29.65843933	      1.38014460	   -175.85617563	      0.26128582	      0.76319831	     -0.89346599	     62.89068161	    -37.26291987	    -22.14539010	     41.01240297	      0.71580147	     -2.71419228	      0.00000000	      0.00000000	     70.22662501	    -27.52246573	     -7.14736844	     46.54803182	      0.81241642	      1.22671562	      0.00000000	      0.00000000	    -79.24064339	     10.81969613	    -10.56886207	     89.38695408	      9.96515280	     59.24975008	      4.71349222	      7.98050982	      0.00000000	      0.00000000	     89.93219276	    -29.31156326	     41.49480870	     30.27139371	     71.63605621	      0.00000000	      0.00000000
      8.02500000	     29.80051876	      1.32219277	   -175.80287205	      0.26107295	      0.76282485	     -0.89365870	     63.08873048	    -37.40541355	    -22.17829047	     41.12769038	      0.71781361	     -2.70578660	      0.00000000	      0.00000000	     70.32694519	    -27.42375345	     -7.10754909	     46.52111590	      0.81194664	      1.24426542	      0.00000000	      0.00000000	    -79.17019955	     10.83459224	    -10.35607814	     89.49319846	     10.43708900	     49.52891402	      5.24356696	     13.12456042	      0.00000000	      0.00000000	     89.93238689	    -28.95260905	     42.12337072	     30.32111440	     66.33542631	      0.00000000	      0.00000000
      8.03000000	     29.84187625	      1.34150389	   -175.96373852	      0.26103778	      0.76270589	     -0.89399605	     63.16845160	    -37.22450860	    -22.09586380	     41.08018844	      0.71698455	     -2.68917892	      0.00000000	      0.00000000	     70.38942189	    -27.59138022	     -7.09579068	     46.58858976	      0.81312429	      1.24801679	      0.00000000	      0.00000000	    -79.28103398	     10.81284197	     -9.99947893	     89.48124064	      9.32451259	     61.21178660	      4.80779353	      7.93729507	      0.00000000	      0.00000000	     89.93237135	    -28.92362490	     41.40868818	     30.42700062	     71.64983500	      0.00000000	      0.00000000
      8.03500000	     30.00676459	      1.24758892	   -176.05111517	      0.26106763	      0.76226716	     -0.89435629	     63.50878541	    -37.20378611	    -21.87252126	     41.17960411	      0.71871968	     -2.58126643	      0.00000000	      0.00000000	     70.51228964	    -27.60909716	     -7.14066919	     46.61622373	      0.81360659	      1.28951998	      0.00000000	      0.00000000	    -79.19343929	     10.74558096	     -9.76180660	     89.52282799	      9.06037068	     61.57113699	      4.93742182	      7.85459343	      0.00000000	      0.00000000	     89.93236465	    -28.67863272	     41.33771210	     30.43964255	     72.16934833	      0.00000000	      0.00000000
